<?xml version="1.0" encoding="utf-8"?>
<!-- Generator: Adobe Illustrator 24.0.0, SVG Export Plug-In . SVG Version: 6.00 Build 0)  -->
<svg version="1.1" id="Layer_1" xmlns="http://www.w3.org/2000/svg" xmlns:xlink="http://www.w3.org/1999/xlink" x="0px" y="0px"
	 viewBox="0 0 282.32 282.13" style="enable-background:new 0 0 282.32 282.13;" xml:space="preserve">
<g>
	<path d="M154.92,5.69l-0.32,5.87l-1.96-0.11l-0.34-1.49c-0.83,1.01-2.12,1.5-4.19,1.39c-3.91-0.21-6.4-2.39-6.2-6.02
		c0.2-3.64,2.91-5.52,6.82-5.31c3.37,0.18,5.67,1.8,6.14,4.54l-3.12-0.17c-0.41-1.24-1.55-1.84-3.16-1.93
		c-2.14-0.12-3.53,0.78-3.65,3.03c-0.12,2.27,1.17,3.31,3.3,3.42c1.55,0.08,2.71-0.35,3.28-1.45l-2.51-0.14l0.11-1.96L154.92,5.69z"
		/>
	<path d="M158.21,0.89l7.61,1.23c2.87,0.46,3.78,2.05,3.52,3.65c-0.35,2.15-1.96,2.58-3.21,2.45c1.89,1.1,0.72,3.57,1.46,5.37
		l-3.23-0.52c-0.61-1.61,0.63-4.37-1.83-4.77l-2.26-0.37l-0.71,4.36l-3.11-0.5L158.21,0.89z M164.59,6.39
		c1.15,0.19,1.62-0.05,1.74-0.79c0.12-0.74-0.25-1.06-1.41-1.25l-3.97-0.64l-0.33,2.04L164.59,6.39z"/>
	<path d="M177.85,14.12l-4.81-1.3l-1.27,1.77l-3.13-0.84l7.2-9.5l3.92,1.06l1.42,11.82l-3.12-0.84L177.85,14.12z M177.6,11.62
		l-0.42-4.32l-0.15-0.04l-2.54,3.53L177.6,11.62z"/>
	<path d="M188.3,10.67l-0.88,2.37l3.55,1.31l-0.76,2.05l-3.55-1.31l-1.34,3.62l-2.97-1.1l3.85-10.38l8.61,3.19l-0.87,2.34
		L188.3,10.67z"/>
	<path d="M196.6,11.27l2.89,1.27l-4.45,10.11l-2.89-1.27L196.6,11.27z"/>
	<path d="M205.01,21.56l-3.78,0.95l-1.32,2.47l-2.71-1.45l5.19-9.73l2.71,1.45l-2.25,4.21l6.52-1.93l3.74,2l-5.29,1.33l0.25,8.49
		l-3.2-1.71L205.01,21.56z"/>
	<path d="M215.2,20.79l6.41,4.31c2.42,1.62,2.58,3.44,1.68,4.79c-1.22,1.81-2.86,1.52-3.95,0.88c1.26,1.79-0.84,3.55-0.92,5.5
		l-2.72-1.83c0.12-1.72,2.4-3.72,0.33-5.11l-1.9-1.28l-2.47,3.67l-2.62-1.76L215.2,20.79z M218.7,28.47
		c0.97,0.65,1.5,0.63,1.92,0.01c0.42-0.62,0.21-1.08-0.76-1.73l-3.35-2.25l-1.16,1.72L218.7,28.47z"/>
	<path d="M230.38,43.62l-3.75-3.31l-1.93,1.03l-2.44-2.15l10.69-5.33l3.05,2.7l-3.98,11.25l-2.43-2.14L230.38,43.62z M231.27,41.26
		l1.55-4.07l-0.11-0.1l-3.85,2.04L231.27,41.26z"/>
	<path d="M245.97,52.03c-1.52,1.41-3.69,1.34-5.38-0.49l-2.83-3.05l-2.75,2.54l-2.15-2.32l8.11-7.51l4.97,5.37
		C247.65,48.4,247.46,50.65,245.97,52.03z M243.97,49.8c0.56-0.52,0.63-1.19-0.13-2.01l-2.46-2.65l-1.89,1.75l2.46,2.65
		C242.72,50.36,243.38,50.36,243.97,49.8z"/>
	<path d="M243.92,55.22l2.01,2.62c-0.98,1.06-0.28,2.38,0.36,3.22c0.82,1.07,1.74,1.6,2.48,1.03c0.73-0.56,0.21-1.37-0.76-2.76
		c-1.1-1.59-3.16-4.54-0.69-6.44c1.96-1.5,4.02-0.25,5.92,2.22c2.2,2.87,2.41,5.09,0.8,6.67l-1.92-2.5c0.68-0.9,0.17-1.94-0.54-2.87
		c-0.73-0.95-1.54-1.62-2.18-1.13c-0.73,0.56,0.1,1.65,1.18,3.31c1.27,1.95,2.6,4.23,0.21,6.06c-2.24,1.72-4.24,0.35-6.28-2.3
		C242.59,59.84,241.67,57.55,243.92,55.22z"/>
	<path d="M256.79,68.07l1.53,2.48l-2.48,1.53l-1.53-2.48L256.79,68.07z"/>
	<path d="M260.57,76.5c3.29-1.58,6.24-0.1,7.93,3.43c1.46,3.04,1.15,5.84-1.03,7.57l-1.35-2.81c0.89-0.96,0.87-2.24,0.17-3.7
		c-0.92-1.93-2.38-2.72-4.42-1.75c-2.05,0.98-2.34,2.61-1.41,4.54c0.8,1.68,2,2.5,3.62,2.08l1.32,2.76
		c-2.96,0.98-5.57-0.52-7.13-3.78C256.58,81.3,257.29,78.07,260.57,76.5z"/>
	<path d="M267.45,100.37l-2.36,0.86l-3.39-9.27l10.38-3.8l3.27,8.93L273,97.95l-2.18-5.96l-1.68,0.62l1.3,3.55l-2.05,0.75l-1.3-3.55
		l-1.95,0.71L267.45,100.37z"/>
	<path d="M276.27,99.93l1.94,7.48c0.73,2.82-0.35,4.29-1.92,4.7c-2.12,0.55-3.16-0.76-3.54-1.96c-0.25,2.18-2.99,2.1-4.34,3.51
		l-0.82-3.17c1.23-1.21,4.27-1.19,3.64-3.61l-0.58-2.22l-4.29,1.11l-0.79-3.06L276.27,99.93z M273.8,108.01
		c0.29,1.13,0.7,1.47,1.43,1.28c0.73-0.19,0.87-0.66,0.58-1.8l-1.01-3.91l-2.01,0.52L273.8,108.01z"/>
	<path d="M278.68,123.21l-0.6-3.61l-8.43,1.4l-0.51-3.08l8.43-1.4l-0.6-3.61l2.46-0.41l1.71,10.31L278.68,123.21z"/>
	<path d="M281.31,124.86l0.32,3.14l-10.99,1.11l-0.32-3.14L281.31,124.86z"/>
	<path d="M279.57,134.24l-2.51,0.11l0.16,3.77l-2.18,0.09l-0.16-3.77l-3.85,0.16l-0.13-3.15l11.03-0.46l0.38,9.14l-2.49,0.1
		L279.57,134.24z"/>
	<path d="M282.22,142.18l-0.07,3.15l-11.03-0.23l0.07-3.15L282.22,142.18z"/>
	<path d="M272.78,157.54l-2.51-0.21l0.83-9.85l11.03,0.93l-0.8,9.49l-2.49-0.21l0.53-6.33l-1.79-0.15l-0.32,3.77l-2.18-0.18
		l0.32-3.77l-2.07-0.17L272.78,157.54z"/>
	<path d="M280.98,160.88l-1.06,5.82c-0.75,4.09-3.23,5.6-6.54,5c-3.31-0.61-5.1-2.91-4.35-6.99l1.06-5.82L280.98,160.88z
		 M271.52,164.99c-0.38,2.05,0.46,3.06,2.45,3.43c1.99,0.36,3.14-0.29,3.51-2.34l0.46-2.54l-5.96-1.09L271.52,164.99z"/>
	<path d="M270.31,176.39l-1.01,3.15c-1.43-0.21-2.12,1.13-2.44,2.13c-0.41,1.28-0.32,2.34,0.57,2.63c0.88,0.28,1.24-0.61,1.84-2.2
		c0.68-1.81,1.94-5.18,4.91-4.23c2.35,0.76,2.5,3.17,1.54,6.14c-1.11,3.44-2.82,4.89-5.04,4.46l0.97-3.01
		c1.12,0.05,1.69-0.96,2.05-2.08c0.37-1.14,0.45-2.19-0.31-2.44c-0.87-0.28-1.3,1.03-2.05,2.86c-0.88,2.15-2,4.55-4.87,3.62
		c-2.69-0.87-2.7-3.29-1.68-6.48C265.75,177.93,267.11,175.87,270.31,176.39z"/>
	<path d="M268.11,202.77l-10.11-4.45l1.27-2.88l3.94,1.73l2.1-4.76l-3.94-1.73l1.27-2.89l10.11,4.45l-1.27,2.89l-3.91-1.72
		l-2.1,4.76l3.91,1.72L268.11,202.77z"/>
	<path d="M262.19,202.45c3.17,1.8,3.64,5.07,1.7,8.47c-1.95,3.42-5,4.67-8.16,2.87c-3.16-1.8-3.64-5.06-1.69-8.49
		C255.97,201.9,259.03,200.65,262.19,202.45z M257.22,211.16c1.96,1.12,3.47,0.42,4.54-1.45c1.06-1.86,0.88-3.5-1.08-4.62
		c-1.97-1.12-3.48-0.43-4.54,1.42C255.08,208.39,255.25,210.04,257.22,211.16z"/>
	<path d="M249.42,225.8c-1.69-1.21-2.06-3.35-0.6-5.37l2.43-3.39l-3.04-2.18l1.84-2.57l8.99,6.44l-4.27,5.96
		C253.31,226.72,251.08,226.99,249.42,225.8z M251.2,223.39c0.62,0.45,1.29,0.38,1.95-0.53l2.11-2.94l-2.09-1.5l-2.11,2.94
		C250.41,222.28,250.54,222.92,251.2,223.39z"/>
	<path d="M251,229.57l-2.01,2.44l-8.53-7.05l2.01-2.44L251,229.57z"/>
	<path d="M243.04,234.94l-1.84-1.72l-2.58,2.76l-1.59-1.49l2.58-2.76l-2.81-2.64l2.16-2.3l8.07,7.56l-6.26,6.69l-1.82-1.71
		L243.04,234.94z"/>
	<path d="M230.94,242.24l-3.55-3.9l2.33-2.12l3.52,3.87l6.87,1.59l-2.55,2.31l-3.77-0.98l0.6,3.86l-2.54,2.3L230.94,242.24z"/>
	<path d="M215.57,256.67c-1.2-1.69-0.86-3.82,1.17-5.26l3.39-2.41l-2.16-3.04l2.57-1.83l6.4,8.99l-5.96,4.24
		C218.95,258.8,216.75,258.33,215.57,256.67z M218.03,254.99c0.44,0.62,1.1,0.78,2.01,0.13l2.94-2.09l-1.49-2.09l-2.94,2.09
		C217.64,253.67,217.56,254.32,218.03,254.99z"/>
	<path d="M203.11,258.32l-1.26-2.17l8.25-4.8l5.56,9.55l-2.73,1.59l-4.3-7.38L203.11,258.32z"/>
	<path d="M202.36,260.39l2.96,6.39l-2.8,1.3l-2.83-6.1c-0.66-1.42-1.83-1.38-3.07-0.81s-2.03,1.44-1.37,2.87l2.83,6.1l-2.8,1.3
		l-2.96-6.39c-1.39-3,0.47-4.79,3.28-6.09C198.4,257.65,200.97,257.39,202.36,260.39z"/>
	<path d="M190.39,265.53l-3.12,1.08c-0.69-1.27-2.17-1.02-3.16-0.67c-1.27,0.44-2.06,1.15-1.76,2.03c0.3,0.87,1.23,0.63,2.86,0.15
		c1.86-0.54,5.3-1.56,6.32,1.38c0.81,2.33-1.03,3.9-3.97,4.92c-3.41,1.18-5.59,0.69-6.58-1.35l2.98-1.03
		c0.64,0.93,1.78,0.77,2.9,0.39c1.13-0.39,2.02-0.96,1.76-1.71c-0.3-0.87-1.6-0.42-3.51,0.08c-2.25,0.59-4.83,1.14-5.82-1.71
		c-0.93-2.67,1-4.13,4.16-5.23C186.43,262.81,188.89,262.66,190.39,265.53z"/>
	<path d="M165.45,270.86l4.9-1l0.34-2.16l3.19-0.65l-2.17,11.75l-3.99,0.82l-6.6-9.95l3.17-0.65L165.45,270.86z M166.79,272.99
		l2.32,3.68l0.15-0.03l0.68-4.3L166.79,272.99z"/>
	<path d="M148.86,276.81l-0.59-5.84l1.95-0.2l0.56,1.42c0.66-1.13,1.86-1.81,3.92-2.02c3.89-0.39,6.69,1.37,7.05,4.99
		c0.37,3.62-2.02,5.9-5.91,6.3c-3.36,0.34-5.88-0.9-6.77-3.53l3.1-0.31c0.6,1.16,1.81,1.58,3.42,1.42c2.13-0.22,3.37-1.31,3.14-3.56
		c-0.23-2.26-1.66-3.08-3.79-2.87c-1.54,0.16-2.62,0.77-3.02,1.94l2.5-0.25l0.2,1.95L148.86,276.81z"/>
	<path d="M136.59,273.61l-0.04-2.51l9.85-0.17l0.19,11.03l-9.49,0.16l-0.04-2.49l6.33-0.11l-0.03-1.79l-3.77,0.06l-0.04-2.18
		l3.77-0.06l-0.03-2.07L136.59,273.61z"/>
	<path d="M122.48,280.92l1.02-10.99l4.17,0.39l3.47,7.68l0.68-7.3l3.1,0.29l-1.02,10.99l-4.19-0.39l-3.45-7.62l-0.67,7.24
		L122.48,280.92z"/>
	<path d="M120.89,275.2c-0.72,3.58-3.68,5.06-7.52,4.29c-3.31-0.67-5.36-2.59-5.44-5.38l3.06,0.62c0.23,1.29,1.27,2.05,2.85,2.36
		c2.1,0.42,3.61-0.26,4.06-2.48c0.45-2.23-0.68-3.44-2.78-3.86c-1.83-0.37-3.21,0.09-3.84,1.64l-3-0.6c1-2.96,3.77-4.15,7.32-3.43
		C119.45,269.11,121.61,271.62,120.89,275.2z"/>
	<path d="M100.67,270.12l1.53-5.06l3.02,0.91L103.7,271l2.17,6.72l-3.3-1l-1.1-3.75l-3.01,2.5l-3.28-0.99L100.67,270.12z"/>
	<path d="M91.05,268.22l-2.7-1.1l1.1-2.7l2.7,1.1L91.05,268.22z"/>
	<path d="M77.01,256.46l4.4,2.34l1.64-1.44l2.86,1.52l-9.14,7.63l-3.58-1.91l1.27-11.83l2.85,1.52L77.01,256.46z M76.69,258.96
		l-0.56,4.3l0.13,0.07l3.26-2.86L76.69,258.96z"/>
	<path d="M68.31,262.1l-2.74-1.88l3.9-7.71l-0.07-0.05l-5.83,6.39l-3.92-2.69l3.87-7.73l-0.07-0.05l-5.77,6.43l-2.75-1.88l7.92-8
		l3.86,2.65l-3.67,7.74l0.1,0.07l5.92-6.2l3.85,2.64L68.31,262.1z"/>
	<path d="M53.28,239.6l3.79,3.24l1.91-1.05l2.46,2.11l-10.59,5.48l-3.09-2.64l3.81-11.29l2.45,2.1L53.28,239.6z M52.42,241.97
		l-1.48,4.08l0.12,0.1l3.81-2.09L52.42,241.97z"/>
	<path d="M42.7,242.14l-5.31-5.6c-2-2.11-1.76-3.92-0.59-5.04c1.58-1.5,3.13-0.86,4.04,0.01c-0.84-2.02,1.6-3.28,2.1-5.17l2.25,2.38
		c-0.49,1.65-3.15,3.1-1.44,4.91l1.58,1.66l3.21-3.04l2.17,2.29L42.7,242.14z M40.96,233.89c-0.81-0.85-1.32-0.94-1.87-0.43
		c-0.54,0.52-0.44,1,0.36,1.85l2.77,2.92l1.5-1.43L40.96,233.89z"/>
	<path d="M32.93,231.65l-3.61-4.68c-2.54-3.29-2.01-6.15,0.65-8.2c2.66-2.06,5.57-1.85,8.11,1.44l3.61,4.68L32.93,231.65z
		 M36.19,221.87c-1.27-1.65-2.58-1.71-4.19-0.47c-1.6,1.23-1.88,2.52-0.61,4.17l1.58,2.04l4.79-3.7L36.19,221.87z"/>
	<path d="M22.11,217.11l-1.63-2.89l6.9-5.19l-0.04-0.08l-8.04,3.15l-2.33-4.14l6.88-5.22l-0.04-0.07l-8.01,3.21l-1.63-2.9
		l10.63-3.67l2.29,4.08l-6.71,5.32l0.06,0.1l8.04-2.95l2.29,4.06L22.11,217.11z"/>
	<path d="M13.38,200.81l-1.31-2.87l10.06-4.59l1.31,2.87L13.38,200.81z"/>
	<path d="M6.77,184.25l10.38-3.8l1.44,3.94l-5.46,6.44l6.9-2.52l1.07,2.93l-10.38,3.8l-1.45-3.96l5.42-6.4l-6.84,2.5L6.77,184.25z"
		/>
	<path d="M2.97,169.85l10.71-2.69l1.02,4.07l-6.1,5.83l7.11-1.79l0.76,3.02l-10.71,2.69l-1.03-4.09l6.05-5.79l-7.06,1.77
		L2.97,169.85z"/>
	<path d="M2.46,166.76l-0.54-3.11l10.89-1.9l0.54,3.11L2.46,166.76z"/>
	<path d="M0.26,149.11l10.99-1.07l0.4,4.17l-6.9,4.85l7.3-0.71l0.3,3.1l-10.99,1.07l-0.41-4.19l6.84-4.83l-7.24,0.7L0.26,149.11z"/>
	<path d="M5.43,133.46l5.87,0.1l-0.03,1.96l-1.48,0.39c1.04,0.79,1.58,2.06,1.55,4.13c-0.07,3.91-2.14,6.47-5.77,6.41
		c-3.64-0.06-5.62-2.7-5.56-6.6c0.06-3.37,1.58-5.73,4.3-6.3l-0.05,3.12c-1.22,0.46-1.78,1.61-1.81,3.22
		c-0.04,2.14,0.91,3.5,3.17,3.53c2.27,0.04,3.25-1.29,3.29-3.42c0.03-1.55-0.46-2.69-1.57-3.22l-0.04,2.51l-1.96-0.03L5.43,133.46z"
		/>
	<path d="M5.22,126.78l0.33-2.9l2.9,0.33l-0.33,2.9L5.22,126.78z"/>
	<path d="M6.63,107.56l-0.75,3.58l8.36,1.76l-0.64,3.05l-8.36-1.76l-0.75,3.58l-2.44-0.51l2.15-10.22L6.63,107.56z"/>
	<path d="M15.17,101.31l-1.4,4.79l1.75,1.31l-0.91,3.12l-9.36-7.41l1.14-3.91l11.87-1.17l-0.91,3.1L15.17,101.31z M12.66,101.5
		l-4.34,0.33l-0.04,0.15l3.48,2.61L12.66,101.5z"/>
	<path d="M19.98,87.13l2.33,0.93l-3.52,8.85L8.53,92.83L9.7,89.9l7.92,3.15L19.98,87.13z"/>
	<path d="M25.06,76.91l2.24,1.13l-4.43,8.81L13,81.89l4.26-8.49l2.23,1.12l-2.85,5.67l1.6,0.8l1.69-3.37l1.95,0.98l-1.69,3.37
		l1.85,0.93L25.06,76.91z"/>
	<path d="M24.82,61.03l9.36,5.89l-2.24,3.56L23.5,70.1l6.22,3.91l-1.66,2.64l-9.36-5.89l2.25-3.58l8.38,0.37l-6.17-3.88L24.82,61.03
		z"/>
	<path d="M34.51,52.41l-2.23,2.91l6.78,5.2l-1.9,2.47l-6.78-5.2l-2.23,2.91l-1.98-1.52l6.36-8.29L34.51,52.41z"/>
	<path d="M40.25,50.32c-2.6-2.57-2.21-5.86,0.55-8.65c2.38-2.41,5.12-3.06,7.49-1.59l-2.2,2.23c-1.21-0.51-2.41-0.06-3.55,1.09
		c-1.51,1.52-1.77,3.17-0.15,4.76c1.62,1.6,3.26,1.32,4.76-0.2c1.31-1.33,1.69-2.73,0.73-4.11l2.15-2.18
		c1.93,2.46,1.4,5.43-1.15,8.01C46.13,52.46,42.84,52.88,40.25,50.32z"/>
	<path d="M47.42,35.52l5.96-4.89c2.25-1.84,4.03-1.48,5.06-0.22c1.38,1.68,0.63,3.17-0.29,4.03c2.08-0.69,3.15,1.83,5,2.46
		l-2.53,2.07c-1.61-0.61-2.86-3.36-4.79-1.78l-1.77,1.45l2.8,3.41l-2.44,2L47.42,35.52z M55.77,34.37c0.9-0.74,1.03-1.25,0.56-1.83
		c-0.47-0.58-0.97-0.51-1.87,0.23l-3.11,2.55l1.31,1.6L55.77,34.37z"/>
	<path d="M71.53,28.17l1.4,2.08l-8.19,5.5l-6.17-9.18l7.89-5.3l1.39,2.07l-5.27,3.54l1,1.49l3.14-2.11l1.22,1.81l-3.14,2.11
		l1.16,1.72L71.53,28.17z"/>
	<path d="M80.27,23.8l-4.38,2.39l0.3,2.16l-2.84,1.55L72,18.07l3.57-1.94l9.19,7.56l-2.83,1.54L80.27,23.8z M78.37,22.16l-3.29-2.83
		l-0.13,0.07l0.6,4.3L78.37,22.16z"/>
	<path d="M90.3,11.99l-3.35,1.48l3.45,7.82l-2.85,1.26l-3.45-7.82l-3.35,1.48l-1-2.28l9.56-4.21L90.3,11.99z"/>
	<path d="M91.25,9.04l2.97-1.09l3.8,10.38l-2.97,1.09L91.25,9.04z"/>
	<path d="M108.18,3.74l3.01,10.62l-4.03,1.14l-6.01-5.92l2,7.05l-3,0.85L97.15,6.87l4.05-1.15l5.97,5.86l-1.99-7L108.18,3.74z"/>
	<path d="M124.52,5.99l0.99,5.79l-1.94,0.33l-0.66-1.38c-0.59,1.17-1.74,1.94-3.78,2.28c-3.86,0.66-6.77-0.91-7.38-4.5
		c-0.61-3.59,1.62-6.03,5.47-6.69c3.33-0.57,5.93,0.5,6.99,3.07l-3.08,0.52c-0.68-1.12-1.92-1.45-3.51-1.18
		c-2.11,0.36-3.27,1.54-2.89,3.77c0.38,2.24,1.87,2.97,3.98,2.61c1.53-0.26,2.57-0.95,2.88-2.14l-2.47,0.42l-0.33-1.94L124.52,5.99z
		"/>
	<path d="M131.09,4.69L134,4.51l0.18,2.91l-2.91,0.18L131.09,4.69z"/>
</g>
</svg>
